<svg width="295" height="68" fill="none" xmlns="http://www.w3.org/2000/svg"><g clip-path="url(#clip0_171_179)" fill-rule="evenodd" clip-rule="evenodd"><path d="M40.219 20.808c.802-1.75.925-3.873.432-6.31 1.665 2.062 1.665 4.56-.432 6.31zm-.864 1.936v8.06l-2.282-.375v-7.81c-5.057-.812-3.7-6.184-2.467-9.558 1.666-3.686 5.243-3.373 6.847.438 1.727 3.31 2.158 7.809-2.098 9.245zm-19.526 8.059l.176-8.13c-1.758-.745-2.753-1.863-2.695-3.539l.176-7.51h.761c.059 4.717.117 7.076.117 7.076.06 1.986 1.113 2.669 1.113.496.176-4.903.293-7.572.293-7.572h.762c-.059 5.276-.059 7.945-.059 7.945.059 1.614 1.113 1.614 1.172 0 0 0 0-2.67-.059-7.945h.762s.117 2.669.292 7.572c0 2.173 1.055 1.49 1.113-.496 0 0 .059-2.359.117-7.076h.762l.176 7.51c0 1.676-.938 2.793-2.695 3.538l.176 7.759-2.46.372z" fill="#05581C"/><path d="M30.598 3.571c.45 1.88.619 2.82.619 2.82C32.96 5.324 32.51 1.816 30.597 0c-1.969 1.817-2.419 5.325-.618 6.39-.057.063.168-.877.619-2.819zm16.799 7.768c-.876 1.682-1.285 2.554-1.285 2.554 2.044.498 3.854-2.43 3.445-5.17-2.628-.125-5.139 2.18-4.438 4.236.058.062.818-.499 2.278-1.62zM12.88 9.014c.986 1.744 1.446 2.554 1.446 2.554-2.3.498-4.336-2.43-3.876-5.17 2.956-.125 5.781 2.18 4.993 4.236-.066 0-.92-.56-2.562-1.62zm32.911 16.162a572.4 572.4 0 00-1.661 2.53c1.958.958 4.272-1.846 4.331-4.923-2.61-.616-5.518 1.3-5.162 3.693-.06 0 .771-.41 2.492-1.3zm-35.161-.918a99.091 99.091 0 012.657 1.889c-1.888 1.61-5.315-.28-6.364-3.289 2.727-1.54 6.573-.7 6.923 1.82 0 0-1.049-.14-3.217-.42zM30 30.803l-22.484 3.73L0 48.821l22.484-3.73L30 30.803zm0 0l22.484 3.73L60 48.821l-22.484-3.73L30 30.803z" fill="#3F8A28"/><path d="M8.414 48.309v11.803l20.437 4.559.373-31.725.745-1.561.745 1.56.373 31.726 20.5-4.559V48.309h1.055l.435 13.052-23.108 6.058L6.923 61.36l.435-13.052h1.056z" fill="#05581C"/><path d="M15 61.09l12.82 2.26.45-16.854C27.243 55.6 22.82 60.38 15 61.09zm30.577-.182l-13.46 2.442-.386-14.53c.644 8.33 5.731 12.464 13.846 12.088z" fill="#3F8A28"/></g><path d="M212.606 31.752c.551-.485 1.182-.888 1.812-1.13.63-.242 1.418-.323 2.127-.323.552 0 1.024.08 1.497.242.473.162.788.404 1.103.726.315.323.552.727.709 1.13.158.485.237.969.237 1.453v5.81h-1.261c-.236 0-.473 0-.551-.08-.158-.081-.237-.243-.316-.485l-.157-.484c-.237.162-.473.404-.63.484-.237.162-.394.242-.631.404l-.709.242c-.236.08-.551.08-.867.08a4.56 4.56 0 01-1.103-.16 1.862 1.862 0 01-.866-.485 2.897 2.897 0 01-.552-.807c-.157-.323-.157-.726-.157-1.13 0-.322.078-.645.236-1.049.158-.323.473-.645.867-.968.394-.323.945-.484 1.654-.727.709-.16 1.576-.322 2.6-.322v-.242c0-.565-.079-.969-.315-1.21-.236-.243-.551-.324-.945-.324-.316 0-.552 0-.788.081-.237.08-.394.161-.552.242l-.472.242c-.158.08-.316.08-.552.08-.158 0-.315-.08-.473-.16-.157-.081-.236-.243-.315-.323l-.63-.807zm4.885 4.196a5.52 5.52 0 00-1.34.161c-.315.081-.63.162-.866.243-.237.08-.316.242-.394.403-.079.161-.158.323-.158.484 0 .323.079.565.236.646.158.161.394.161.71.161.315 0 .63-.08.945-.161.236-.161.552-.323.788-.646v-1.29h.079zm-8.51-3.309l-.236.242c-.079.081-.157.081-.315.081s-.236 0-.394-.08c-.079-.081-.236-.162-.394-.243l-.473-.242c-.157-.08-.394-.08-.709-.08-.315 0-.63.08-.866.161-.237.161-.473.323-.631.565-.157.242-.236.484-.315.888-.079.322-.079.726-.079 1.13 0 .887.158 1.613.473 2.017.315.484.788.726 1.418.726.315 0 .552-.08.788-.161l.473-.242c.157-.081.236-.162.394-.242a.594.594 0 01.394-.162c.236 0 .394.08.472.242l.788.969c-.315.322-.551.565-.866.807a2.64 2.64 0 01-.946.484l-.945.242c-.315.08-.631.08-.946.08-.551 0-1.103-.08-1.575-.322a5.177 5.177 0 01-1.34-.969 4.173 4.173 0 01-.945-1.533c-.237-.565-.315-1.291-.315-2.017 0-.646.078-1.291.315-1.856.157-.565.472-1.05.866-1.534a4.464 4.464 0 011.419-.968 4.76 4.76 0 011.969-.404c.709 0 1.34.081 1.891.323.552.242 1.024.565 1.418 1.05l-.788 1.048zm-10.321-4.76c0 .241-.079.403-.157.645-.079.161-.237.403-.394.484-.158.161-.315.242-.552.323-.157.161-.394.161-.551.161-.237 0-.394-.08-.631-.161a2.435 2.435 0 01-.472-.323c-.158-.161-.237-.323-.316-.484a1.562 1.562 0 01-.157-.646c0-.242.079-.403.157-.645.079-.162.237-.404.316-.485.157-.161.315-.242.472-.322.158-.081.394-.162.631-.162.236 0 .472.08.63.162.236.08.394.161.551.322.158.162.237.323.394.485 0 .242.079.403.079.645zm-.315 2.581v9.28h-2.679v-9.28h2.679zm-8.903 1.453c.315-.484.63-.888.945-1.21.394-.323.788-.404 1.261-.404.394 0 .709.08 1.024.323l-.157 2.017c0 .162-.079.242-.158.242-.079.081-.157.081-.315.081h-.867c-.394 0-.709.08-.945.323-.237.242-.473.484-.631.888v5.649h-2.678V30.46h1.891c.078 0 .157.081.236.081.079.08.079.08.158.242 0 .081.078.162.078.323l.158.807zm-11.818 3.712c.078.807.315 1.372.709 1.695.394.323.866.565 1.418.565.315 0 .551 0 .788-.08.236-.081.394-.162.63-.243l.473-.242c.157-.08.315-.08.473-.08.236 0 .393.08.472.241l.788.969c-.315.322-.551.565-.866.807a2.423 2.423 0 01-1.025.484c-.315.08-.709.161-1.024.242-.315.08-.63.08-.945.08-.631 0-1.261-.08-1.813-.322-.551-.242-1.024-.565-1.497-.968-.394-.404-.709-.969-1.024-1.534a6.302 6.302 0 01-.394-2.179c0-.645.079-1.21.315-1.775.237-.565.473-1.05.867-1.453a4.471 4.471 0 011.418-.968 4.667 4.667 0 011.891-.404c.63 0 1.182.081 1.655.323.472.162.945.484 1.26.807.394.404.631.807.867 1.372.236.565.315 1.13.315 1.776v.484c0 .161-.079.242-.079.323-.078.08-.078.161-.157.161s-.158.08-.315.08h-5.2v-.16zm3.466-1.614c0-.242 0-.403-.078-.645a3.98 3.98 0 00-.237-.565c-.157-.162-.315-.323-.473-.404-.236-.08-.472-.161-.709-.161-.551 0-.945.161-1.182.484-.315.323-.472.726-.551 1.291h3.23zm-22.612 5.73v-9.28h1.655c.315 0 .551.16.63.484l.157.484.473-.484c.158-.162.315-.242.552-.323.157-.08.394-.162.63-.242.236-.08.473-.08.709-.08.552 0 1.024.16 1.339.403.394.322.631.645.788 1.13.158-.323.316-.566.552-.727.236-.242.473-.403.709-.484.236-.162.551-.242.788-.242.394-.08.709-.08.945-.08.552 0 .946.08 1.419.241.393.162.709.404 1.024.726.236.323.473.646.63 1.13.158.404.236.969.236 1.534v5.89h-2.678V33.85c0-.968-.394-1.453-1.182-1.453-.394 0-.709.162-.946.404-.236.242-.394.645-.394 1.049v5.89h-2.678v-5.89c0-.565-.079-.888-.316-1.13-.236-.242-.472-.323-.866-.323-.237 0-.473.081-.709.162-.237.08-.394.242-.631.484v6.698h-2.836zm-2.679 0h-2.285c-.236 0-.472-.08-.63-.161-.158-.162-.315-.243-.394-.485l-.788-2.26h-4.885l-.788 2.26a1.666 1.666 0 01-.315.485.882.882 0 01-.63.242h-2.285l4.964-13.074h2.994l5.042 12.993zm-4.727-5.003l-1.182-3.551a5.737 5.737 0 00-.315-.807c-.079-.323-.237-.646-.315-.968-.079.403-.158.726-.315 1.049-.079.322-.158.564-.316.806l-1.181 3.551h3.624v-.08zm-16.625-2.26l-.236.242c-.079.08-.158.08-.315.08-.158 0-.236 0-.394-.08-.158-.08-.236-.08-.394-.161-.158-.081-.315-.162-.473-.162-.157-.08-.394-.08-.63-.08-.315 0-.63.08-.788.161-.158.161-.315.323-.315.565 0 .161.079.323.157.403.158.081.316.242.552.323.236.08.394.162.709.242.236.081.473.162.788.242.236.081.552.242.788.323l.709.484c.236.162.394.404.473.727.157.242.157.565.157.968 0 .484-.079.888-.236 1.291a2.203 2.203 0 01-.709.969 4.14 4.14 0 01-1.182.645c-.473.162-1.024.242-1.655.242-.315 0-.63 0-.945-.08-.315-.081-.63-.162-.867-.242-.315-.081-.551-.243-.788-.404-.236-.161-.472-.323-.63-.484l.63-1.05c.079-.08.158-.241.237-.322.079-.08.236-.08.394-.08.157 0 .315 0 .394.08.157.08.236.161.394.242.157.08.315.162.551.242.158.08.473.08.709.08.237 0 .394 0 .552-.08.157-.08.236-.08.315-.161.079-.08.157-.162.157-.242.079-.081.079-.162.079-.323 0-.162-.079-.323-.157-.484-.158-.081-.315-.242-.473-.323-.236-.08-.394-.162-.709-.242-.237-.08-.552-.162-.788-.242-.236-.081-.552-.242-.788-.323l-.709-.484c-.236-.242-.394-.484-.473-.727-.157-.322-.157-.645-.157-1.049 0-.403.078-.807.236-1.13.158-.322.394-.645.63-.968a4.99 4.99 0 011.103-.646c.473-.08 1.025-.16 1.576-.16.315 0 .63 0 .946.08.315.08.63.161.866.242.237.08.552.242.709.403.237.162.394.323.552.485l-.552.968zm-9.612-6.133V39.74h-2.679V26.345h2.679zm-14.024 5.407c.551-.485 1.182-.888 1.812-1.13.709-.242 1.418-.323 2.206-.323.552 0 1.024.08 1.497.242.473.162.788.404 1.103.726.315.323.552.727.709 1.13.158.485.236.969.236 1.453v5.81h-1.26c-.236 0-.473 0-.552-.08-.157-.081-.236-.243-.315-.485l-.157-.484c-.237.162-.473.404-.631.484-.236.162-.394.242-.63.404l-.709.242c-.236.08-.552.08-.867.08-.394 0-.788-.08-1.103-.16a1.862 1.862 0 01-.866-.485 2.897 2.897 0 01-.552-.807c-.158-.323-.158-.726-.158-1.13 0-.322.079-.645.237-1.049.157-.323.473-.645.866-.968.394-.323.946-.484 1.655-.727.709-.16 1.576-.322 2.6-.322v-.242c0-.565-.079-.969-.315-1.21-.236-.243-.552-.324-.946-.324-.315 0-.551 0-.787.081-.394.08-.631.161-.788.242l-.473.242c-.158.08-.315.08-.552.08-.157 0-.315-.08-.472-.16-.158-.081-.237-.243-.315-.323l-.473-.807zm4.885 4.196a5.52 5.52 0 00-1.34.161c-.315.081-.63.162-.866.243-.237.08-.316.242-.394.403-.079.161-.158.323-.158.484 0 .323.079.565.236.646.158.161.394.161.71.161.315 0 .63-.08.945-.161.236-.161.552-.323.788-.646v-1.29h.079zm-13.867-.323c.079.807.315 1.372.709 1.695.394.323.867.565 1.418.565.315 0 .552 0 .788-.08.236-.081.394-.162.63-.243l.473-.242c.158-.08.315-.08.473-.08.236 0 .394.08.473.241l.787.969c-.315.322-.551.565-.866.807a2.42 2.42 0 01-1.024.484c-.316.08-.71.161-1.025.242-.315.08-.63.08-.945.08-.631 0-1.261-.08-1.812-.322-.552-.242-1.025-.565-1.497-.968-.394-.404-.71-.969-1.025-1.534a6.295 6.295 0 01-.393-2.179c0-.645.078-1.21.315-1.775.236-.565.472-1.05.866-1.453a4.464 4.464 0 011.419-.968c.709-.404 1.26-.565 1.969-.565.631 0 1.182.08 1.655.323.473.161.945.484 1.26.807.394.403.631.807.867 1.372.236.565.315 1.13.315 1.775v.484c0 .162-.079.242-.079.323-.078.08-.078.162-.157.162s-.158.08-.315.08h-5.279zm3.388-1.614c0-.242 0-.403-.079-.645s-.158-.404-.236-.565c-.158-.162-.316-.323-.473-.404-.236-.08-.473-.161-.709-.161-.552 0-.946.161-1.182.484-.315.323-.473.726-.552 1.291h3.231zm-9.534-7.343V39.74h-2.6v-8.07c0-.242 0-.404.08-.646l-3.389 6.699a.822.822 0 01-.394.484c-.236.161-.472.161-.709.161h-.394c-.236 0-.394-.08-.63-.161a.821.821 0 01-.394-.484l-3.388-6.699c0 .242 0 .404.079.646v8.07h-2.6V26.668h2.521c.079 0 .158 0 .236.08.08 0 .158.081.237.162.079.08.157.161.157.242l3.31 6.617c.078.242.236.484.315.727.078.242.236.484.315.726.079-.242.236-.484.315-.807.079-.242.236-.484.315-.727l3.31-6.617c.078-.08.157-.242.157-.242.079-.08.157-.08.236-.161.079 0 .158-.081.236-.081h2.679v.08zm-8.039 26.436h-4.578v2.058h4.2v1.904h-4.2V61h-2.002v-9.8h6.58v1.904zm5.603.028c.182 0 .322.014.448.028v2.058c-.154-.014-.266-.028-.49-.028-1.274 0-2.366.56-2.366 2.38V61h-2.002v-7.7h2.002v1.344c.476-1.008 1.316-1.512 2.408-1.512zm5.237 0c2.548 0 4.13 2.002 3.934 4.536H96.51c.126 1.232.966 1.848 2.002 1.848.77 0 1.442-.35 1.708-.966h2.072c-.574 1.82-2.114 2.618-3.766 2.618-2.408 0-4.06-1.708-4.06-4.004 0-2.31 1.666-4.032 4.018-4.032zm-.014 1.652c-.98 0-1.61.588-1.862 1.414h3.682c-.224-.84-.854-1.414-1.82-1.414zm9.146-1.652c2.548 0 4.13 2.002 3.934 4.536h-5.908c.126 1.232.966 1.848 2.002 1.848.77 0 1.442-.35 1.708-.966h2.072c-.574 1.82-2.114 2.618-3.766 2.618-2.408 0-4.06-1.708-4.06-4.004 0-2.31 1.666-4.032 4.018-4.032zm-.014 1.652c-.98 0-1.61.588-1.862 1.414h3.682c-.224-.84-.854-1.414-1.82-1.414zm17.027-3.584h2.31V61h-2.002v-7.028l-2.73 4.13h-.182l-2.716-4.13V61h-2.002v-9.8h2.296l2.52 3.766 2.506-3.766zm7.993 1.932c2.548 0 4.13 2.002 3.934 4.536h-5.908c.126 1.232.966 1.848 2.002 1.848.77 0 1.442-.35 1.708-.966h2.072c-.574 1.82-2.114 2.618-3.766 2.618-2.408 0-4.06-1.708-4.06-4.004 0-2.31 1.666-4.032 4.018-4.032zm-.014 1.652c-.98 0-1.61.588-1.862 1.414h3.682c-.224-.84-.854-1.414-1.82-1.414zm11.065-1.484h2.002l-.014 7.7h-2.002v-1.036c-.532.728-1.33 1.204-2.408 1.204-2.016 0-3.514-1.652-3.514-4.018 0-2.38 1.526-4.018 3.5-4.018 1.092 0 1.904.504 2.436 1.246V53.3zm-1.974 5.964c1.12 0 1.974-.84 1.974-2.114 0-1.26-.854-2.114-1.974-2.114s-1.946.854-1.946 2.114c0 1.274.84 2.114 1.946 2.114zM147.285 61V50.22h2.002V61h-2.002zm7.151.168c-2.058 0-3.556-1.008-3.836-2.702h2.03c.154.616.616 1.036 1.862 1.036.882 0 1.302-.21 1.302-.63 0-.518-.602-.56-1.764-.84-2.184-.518-3.08-1.008-3.08-2.338 0-1.624 1.344-2.562 3.374-2.562 2.142 0 3.192 1.036 3.458 2.464h-2.03c-.154-.49-.574-.784-1.498-.784-.798 0-1.288.224-1.288.644 0 .364.35.434 1.47.686 2.198.504 3.43.924 3.43 2.464 0 1.722-1.526 2.562-3.43 2.562zm15.772-8.064h-4.578v2.058h4.2v1.904h-4.2V61h-2.002v-9.8h6.58v1.904zm4.879.028c2.226 0 4.018 1.694 4.018 4.018s-1.764 4.018-4.018 4.018c-2.24 0-4.004-1.708-4.004-4.018 0-2.324 1.792-4.018 4.004-4.018zm0 1.904c-1.12 0-1.988.854-1.988 2.114 0 1.274.868 2.114 1.988 2.114s1.988-.84 1.988-2.114c0-1.26-.868-2.114-1.988-2.114zm9.83-1.904c.182 0 .322.014.448.028v2.058c-.154-.014-.266-.028-.49-.028-1.274 0-2.366.56-2.366 2.38V61h-2.002v-7.7h2.002v1.344c.476-1.008 1.316-1.512 2.408-1.512zm12.581-.028h-4.578v1.974h4.2v1.904h-4.2v2.114h4.578V61h-6.58v-9.8h6.58v1.904zM198.841 61V50.22h2.002V61h-2.002zm4.604-11.256c.728 0 1.246.49 1.246 1.176 0 .686-.518 1.19-1.246 1.19-.7 0-1.246-.504-1.246-1.19 0-.686.546-1.176 1.246-1.176zM202.437 61v-7.7h2.002V61h-2.002zm9.363-7.7h2.002v7.602c0 2.282-1.484 3.766-3.808 3.766-1.862 0-3.612-.938-3.906-2.954h2.072c.224.868.952 1.176 1.778 1.176 1.218 0 1.862-.63 1.862-1.932v-1.106c-.546.728-1.344 1.204-2.422 1.204-2.016 0-3.514-1.652-3.514-3.962 0-2.324 1.526-3.962 3.514-3.962 1.064 0 1.89.49 2.422 1.232V53.3zm-1.974 5.852c1.12 0 1.974-.84 1.974-2.058 0-1.204-.854-2.058-1.974-2.058s-1.946.854-1.946 2.058c0 1.204.84 2.058 1.946 2.058zm6.58-9.408c.728 0 1.246.49 1.246 1.176 0 .686-.518 1.19-1.246 1.19-.7 0-1.246-.504-1.246-1.19 0-.686.546-1.176 1.246-1.176zM215.398 61v-7.7h2.002V61h-2.002zm8.047-7.868c1.974 0 3.514 1.638 3.514 4.018 0 2.366-1.512 4.018-3.514 4.018-1.092 0-1.89-.476-2.436-1.204V61h-2.002V50.22h2.002v4.158a2.911 2.911 0 012.436-1.246zm-.462 6.132c1.106 0 1.946-.84 1.946-2.114 0-1.26-.826-2.114-1.946-2.114s-1.974.854-1.974 2.114c0 1.274.854 2.114 1.974 2.114zm5.39 1.736V50.22h2.002V61h-2.002zm7.431-7.868c2.548 0 4.13 2.002 3.934 4.536h-5.908c.126 1.232.966 1.848 2.002 1.848.77 0 1.442-.35 1.708-.966h2.072c-.574 1.82-2.114 2.618-3.766 2.618-2.408 0-4.06-1.708-4.06-4.004 0-2.31 1.666-4.032 4.018-4.032zm-.014 1.652c-.98 0-1.61.588-1.862 1.414h3.682c-.224-.84-.854-1.414-1.82-1.414zM252.634 61l-.826-2.31h-3.962l-.84 2.31h-2.114l3.668-9.8h2.534l3.668 9.8h-2.128zm-4.102-4.214h2.576l-1.288-3.556-1.288 3.556zm12.736-6.566h2.002V61h-2.002v-1.036c-.532.728-1.344 1.204-2.422 1.204-2.002 0-3.514-1.652-3.514-4.018 0-2.38 1.526-4.018 3.5-4.018 1.092 0 1.904.504 2.436 1.246V50.22zm-1.974 9.044c1.12 0 1.974-.84 1.974-2.114 0-1.26-.854-2.114-1.974-2.114s-1.946.854-1.946 2.114c0 1.274.84 2.114 1.946 2.114zm10.622-5.964h2.002V61h-2.002v-1.064c-.56.784-1.316 1.232-2.38 1.232-1.694 0-2.744-1.162-2.744-3.038V53.3h2.002v4.396c0 1.008.378 1.568 1.414 1.568 1.106 0 1.708-.658 1.708-1.918V53.3zm3.601 7.7V50.22h2.002V61h-2.002zm9.321-2.072l.336 1.624c-.42.28-1.372.616-2.296.616-1.54 0-2.884-.924-2.884-3.136V55.19h-1.372V53.3h1.372v-1.666l2.002-.434v2.1h2.856v1.89h-2.856v2.73c0 .91.434 1.386 1.232 1.386.448 0 .98-.154 1.61-.378zm4.981 2.24c-2.058 0-3.556-1.008-3.836-2.702h2.03c.154.616.616 1.036 1.862 1.036.882 0 1.302-.21 1.302-.63 0-.518-.602-.56-1.764-.84-2.184-.518-3.08-1.008-3.08-2.338 0-1.624 1.344-2.562 3.374-2.562 2.142 0 3.192 1.036 3.458 2.464h-2.03c-.154-.49-.574-.784-1.498-.784-.798 0-1.288.224-1.288.644 0 .364.35.434 1.47.686 2.198.504 3.43.924 3.43 2.464 0 1.722-1.526 2.562-3.43 2.562z" fill="#05581C"/><defs><clipPath id="clip0_171_179"><path fill="#fff" d="M0 0h60v68H0z"/></clipPath></defs></svg>