<svg width="32" height="32" viewBox="0 0 32 32" fill="none" xmlns="http://www.w3.org/2000/svg">
<rect width="32" height="32" rx="8" fill="#05581C"/>
<path d="M20.972 10.251C20.7424 10.1233 20.4899 10.042 20.2289 10.0119C19.9679 9.98184 19.7035 10.0035 19.4509 10.0757C19.1983 10.1478 18.9624 10.2691 18.7567 10.4325C18.5509 10.5959 18.3795 10.7983 18.252 11.028L14.539 17.71L12.414 15.585C12.2295 15.394 12.0088 15.2416 11.7648 15.1368C11.5208 15.032 11.2584 14.9768 10.9928 14.9745C10.7272 14.9722 10.4639 15.0228 10.2181 15.1234C9.97229 15.2239 9.74899 15.3724 9.5612 15.5602C9.37342 15.748 9.22491 15.9713 9.12435 16.2171C9.02379 16.4629 8.97319 16.7262 8.97549 16.9918C8.9778 17.2574 9.03297 17.5198 9.13779 17.7638C9.24261 18.0078 9.39497 18.2285 9.58599 18.413L13.586 22.413C13.964 22.792 14.474 23 15 23L15.277 22.98C15.5835 22.9371 15.876 22.8237 16.1312 22.6486C16.3865 22.4735 16.5976 22.2415 16.748 21.971L21.748 12.971C21.8756 12.7415 21.9568 12.489 21.9869 12.2281C22.017 11.9672 21.9954 11.7029 21.9234 11.4503C21.8513 11.1977 21.7302 10.9618 21.567 10.756C21.4037 10.5502 21.2016 10.3786 20.972 10.251Z" fill="white"/>
</svg>
