<svg width="41" height="41" viewBox="0 0 41 41" xmlns="http://www.w3.org/2000/svg">
<path d="M31.5076 28.6554C32.3098 29.4576 32.3098 30.7054 31.5076 31.5076C31.1065 31.9087 30.6163 32.087 30.0815 32.087C29.5467 32.087 29.0565 31.9087 28.6554 31.5076L20.5 23.3522L12.3446 31.5076C11.9435 31.9087 11.4532 32.087 10.9185 32.087C10.3837 32.087 9.89346 31.9087 9.49238 31.5076C8.6902 30.7054 8.6902 29.4576 9.49238 28.6554L17.6478 20.5L9.49238 12.3446C8.6902 11.5424 8.6902 10.2946 9.49238 9.49239C10.2946 8.69022 11.5424 8.69022 12.3446 9.49239L20.5 17.6478L28.6554 9.49239C29.4576 8.69022 30.7054 8.69022 31.5076 9.49239C32.3098 10.2946 32.3098 11.5424 31.5076 12.3446L23.3522 20.5L31.5076 28.6554Z" />
</svg>
