<?xml version="1.0" encoding="utf-8"?><svg viewBox="0 0 512 512" xmlns="http://www.w3.org/2000/svg" xmlns:xlink="http://www.w3.org/1999/xlink"><style>:root>svg{display:none}:root>svg:target{display:block}</style><svg fill="none" viewBox="0 0 25 31" id="arrow-down" xmlns="http://www.w3.org/2000/svg"><path d="m22.283 12.293-6.522 6.414-6.522-6.414"/></svg><svg fill="none" viewBox="0 0 32 32" id="check-mark" xmlns="http://www.w3.org/2000/svg"><rect width="32" height="32" rx="8" fill="#05581C"/><path d="M20.972 10.251a2 2 0 0 0-2.72.777l-3.713 6.682-2.125-2.125a2 2 0 1 0-2.828 2.828l4 4c.378.379.888.587 1.414.587l.277-.02a2 2 0 0 0 1.471-1.009l5-9a2 2 0 0 0-.776-2.72z" fill="#fff"/></svg><svg fill="none" viewBox="0 0 70 70" id="choose-icon-1" xmlns="http://www.w3.org/2000/svg"><path d="M39.126 55.406c-10.86 1.952-19.218 6.045-18.656 9.153.562 3.108 9.81 4.04 20.681 2.09 10.861-1.952 19.219-6.046 18.657-9.154-.563-3.107-9.822-4.04-20.682-2.089z" fill="#05581C"/><path d="M50.082 2.895C28.658-.499 8.294 12.632 8.294 12.632S-6.438 24.595 6.152 34.417c7.689 5.992 10.712 10.192 11.91 12.557 4.985-3.235 15.41-8.559 29.008-7.583.583.042 1.029.551.986 1.135a1.08 1.08 0 0 1-1.135.986c-13.279-.955-23.545 4.529-28.106 7.53.021.138.021.202.021.202l1.21 11.412c3.733-3.723 12.684-6.268 18.698-7.34 3.829-.689 7.626-1.06 10.977-1.06 3.299 0 7.064.35 9.535 1.654l-1.665-11.104s2.758-10.351 7.223-15.888c4.465-5.536 4.02-10.182 4.02-10.182S71.516 6.29 50.081 2.896zM18.985 42.201a27.982 27.982 0 0 0-1.538-2.354 60.157 60.157 0 0 0-3.458-4.37c-1.198-1.06-2.386-2.142-3.436-3.351-1.103-1.199-2.079-2.503-2.99-3.85-.881-1.369-1.677-2.79-2.302-4.296-.626-1.495-1.146-3.044-1.347-4.645.604 1.485 1.357 2.885 2.163 4.242a51.234 51.234 0 0 0 2.63 3.903c.488.615.955 1.241 1.475 1.825a30.674 30.674 0 0 0 1.538 1.77c.52.584 1.092 1.125 1.622 1.698l1.697 1.622.064.064.021.021c1.199 1.538 2.28 3.129 3.214 4.826.466.849.88 1.729 1.209 2.64.329.902.594 1.878.53 2.854-.18-.955-.636-1.782-1.092-2.599zm4.486.616c.074-.34 0-.68-.074-.997a7.796 7.796 0 0 0-.297-.965 20.28 20.28 0 0 0-.817-1.846c-.594-1.21-1.294-2.376-1.994-3.532-1.41-2.312-2.97-4.529-4.39-6.926-1.39-2.396-2.61-4.9-3.564-7.498-.944-2.599-1.708-5.293-1.888-8.06.827 2.62 1.898 5.122 3.033 7.583 1.167 2.45 2.408 4.847 3.797 7.17 1.347 2.322 2.896 4.634 4.115 7.127.616 1.24 1.188 2.513 1.623 3.84.212.667.414 1.335.53 2.025.085.679.202 1.421-.074 2.079zm5.812-2.472c-.18-1.357-.615-2.651-1.029-3.945-.424-1.294-.901-2.567-1.378-3.84-.965-2.534-2.047-5.037-2.97-7.646A82.418 82.418 0 0 1 21.573 17c-.647-2.672-1.188-5.377-1.485-8.113.933 2.588 1.803 5.186 2.673 7.774.88 2.577 1.728 5.176 2.651 7.732.88 2.556 1.91 5.112 2.652 7.785.381 1.325.71 2.672.954 4.04.202 1.348.435 2.737.265 4.126zm6.428-2.8c-.51-2.757-.838-5.525-1.093-8.304a115.68 115.68 0 0 1-.467-8.368c-.031-2.853.266-5.569.107-8.294-.096-1.358-.213-2.715-.573-4.01a7.852 7.852 0 0 0-.732-1.866c-.34-.562-.774-1.135-1.432-1.379.71.085 1.326.584 1.793 1.124.466.563.816 1.21 1.113 1.867.562 1.336.87 2.747 1.072 4.158.19 1.41.265 2.832.265 4.242-.011 1.432-.053 2.758-.011 4.158l.117 8.325c.01 2.758-.01 5.547-.16 8.347zm10.924-16.29-.647 2.089-.594 2.047c-.403 1.368-.742 2.757-1.093 4.136-.625 2.779-1.336 5.568-1.187 8.453-.446-1.39-.488-2.885-.467-4.348a36.98 36.98 0 0 1 .435-4.349c.212-1.442.53-2.863.859-4.285.17-.71.36-1.4.562-2.12l.594-2.048c.774-2.725 1.326-5.494 1.421-8.294 0-1.39-.063-2.79-.413-4.147-.35-1.336-.902-2.683-1.93-3.701 1.261.753 2.089 2.1 2.672 3.457.562 1.4.817 2.885.923 4.37.159 2.97-.372 5.918-1.135 8.74zm4.285 12.292a48.184 48.184 0 0 0-1.464 4.433c.223-3.129 1.008-6.215 2.015-9.185.997-2.99 2.28-5.865 3.712-8.665.753-1.4 1.475-2.736 2.08-4.104.264-.7.604-1.38.773-2.1.096-.36.223-.71.297-1.072l.191-1.092c.17-1.453.075-2.948-.52-4.306-.562-1.368-1.665-2.514-3.012-3.299a6.063 6.063 0 0 1 2.09 1.125c.636.488 1.177 1.124 1.612 1.813.848 1.422 1.156 3.13 1.06 4.773l-.116 1.23c-.053.403-.18.796-.265 1.188-.149.806-.477 1.549-.732 2.312-.605 1.496-1.358 2.917-2.058 4.264a116.056 116.056 0 0 0-3.956 8.379 84.413 84.413 0 0 0-1.707 4.306zm13.098-8.941c-7.413 11.412-7.413 15.729-7.413 15.729s-.085-6.905 5.27-15.294c0 0-5.896 3.129-7.678 14.106 0 0-1.294-7.255 8.612-18.317 2.747-3.065 3.649-7.466 1.994-11.232-.106-.233-.212-.477-.34-.72 0 0 6.958 4.316-.445 15.728z" fill="#05581C"/></svg><svg fill="none" viewBox="0 0 78 78" id="choose-icon-2" xmlns="http://www.w3.org/2000/svg"><path d="m55.325 22.63-1.428 1.428-1.429-1.428a5.386 5.386 0 0 0-7.614 7.615l7.248 6.861a2.538 2.538 0 0 0 3.59 0l7.248-6.861a5.386 5.386 0 0 0-7.615-7.615zm-41.36-.366 6.885.32.32-6.885a2.903 2.903 0 0 0-5.798-.27l-.05 1.086-1.087-.05a2.904 2.904 0 0 0-.27 5.8zm57.351 14.063-.838.04-.04-.84a2.238 2.238 0 1 0-4.47.208l.247 5.308 5.307-.246a2.238 2.238 0 0 0-.206-4.47zM23.384 8.906a1.523 1.523 0 1 0 0-3.047 1.523 1.523 0 0 0 0 3.047zm41.133 4.57a1.523 1.523 0 1 0 0-3.047 1.523 1.523 0 0 0 0 3.047zM49.283 46.992a1.523 1.523 0 1 0 0-3.047 1.523 1.523 0 0 0 0 3.047zM8.15 13.443a1.523 1.523 0 1 0 0-3.047 1.523 1.523 0 0 0 0 3.047zM21.86 30.2a1.524 1.524 0 1 0 0-3.046 1.524 1.524 0 0 0 0 3.047z" fill="#05581C"/><path d="m29.061 26.7 11.185 10.588a4.666 4.666 0 0 0 3.302 1.361 4.665 4.665 0 0 0 3.303-1.361l1.614-1.527-4.673-4.424-.014-.015a6.861 6.861 0 0 1-2.024-4.885c0-1.845.72-3.58 2.024-4.885a6.861 6.861 0 0 1 4.884-2.023c1.845 0 3.58.718 4.885 2.023l.351.352.351-.352a6.858 6.858 0 0 1 4.885-2.023c.531 0 1.053.061 1.557.178a9.036 9.036 0 0 0-2.64-5.858c-3.539-3.54-9.296-3.54-12.835 0l-1.666 1.666-1.666-1.666c-3.54-3.54-9.297-3.54-12.836 0a9.016 9.016 0 0 0-2.658 6.418 9.02 9.02 0 0 0 2.658 6.418l.013.014zM4.341 70.604H16.53V38.613H4.34v31.992zm6.856-6.856a1.523 1.523 0 1 1 0 3.047 1.523 1.523 0 0 1 0-3.047zM67.642 48.06l-28.816 8.112a.736.736 0 0 1-.206.028H24.909a.761.761 0 1 1 0-1.523h12.187c2.1 0 3.809-1.709 3.809-3.809s-1.709-3.808-3.809-3.808h-9.14a.763.763 0 0 1-.539-.223l-4.347-4.348h-5.017v24.375h3.809a.76.76 0 0 1 .37.097l5.798 3.22a15.37 15.37 0 0 0 15.071-.026l.018-.01 27.6-14.488a4.118 4.118 0 0 0-.431-7.466 4.129 4.129 0 0 0-2.646-.13z" fill="#05581C"/></svg><svg fill="none" viewBox="0 0 80 80" id="choose-icon-3" xmlns="http://www.w3.org/2000/svg"><path d="M65.001 2.5c-1.67-.003-1.67 2.503 0 2.5h1.25v2.588a10 10 0 0 0-8.75 9.913c0 5.523 4.477 10 10 10s10-4.477 10-10a10 10 0 0 0-8.75-9.91V5h1.25c1.67.002 1.67-2.504 0-2.5h-5zm-20.003 8.75c-1.67-.002-1.67 2.504 0 2.5h8.75c1.67.004 1.67-2.502 0-2.5h-8.75zm21.56 2.483a3.824 3.824 0 1 0 4.818 3.692c.038-1.653 2.448-1.677 2.502 0a6.33 6.33 0 0 1-5.776 6.301 6.332 6.332 0 0 1-6.783-5.203c-.577-3.216 1.438-6.361 4.595-7.207.108-.033.22-.047.332-.047 1.446.043 1.73 2.035.313 2.464zm5.084.647-3.144 3.885c-1.05 1.3-2.997-.28-1.944-1.575l3.145-3.882c.262-.325.58-.471.893-.486.941-.043 1.84 1.086 1.05 2.058zM47.5 16.25c-1.67-.003-1.67 2.503 0 2.5h6.25c1.67.004 1.67-2.503 0-2.5H47.5zm3.75 5c-1.67-.003-1.67 2.504 0 2.5h2.5c1.67.004 1.67-2.503 0-2.5h-2.5zM17.56 41.261v-15.01H7.503c-2.056 0-3.758 1.691-3.758 3.748V65A1.247 1.247 0 0 0 2.5 66.25v2.502c0 .693.558 1.25 1.25 1.25L7.493 70c0-5.499 4.521-10.008 10.012-10.008 5.491 0 10.003 4.513 10.003 10.008H53.75c0-5.499 4.522-10.008 10.013-10.008 5.49 0 10.002 4.513 10.002 10.008l2.485.002c.693 0 1.25-.557 1.25-1.25V66.25c0-.693-.557-1.25-1.25-1.25H75v-7.499h-2.5c-1.667 0-1.651-2.274 0-2.5H75v-2.5c0-.444-.175-.641-.32-.881L63.894 33.65c-.633-1.295-1.394-1.152-2.64-1.152H50.002V65h-2.5V29.998c0-2.056-1.69-3.748-3.745-3.748H35.01v15.006c.002 1.729-1.829 2.971-3.433 2.326l-5.325-2.131-5.256 2.117c-1.603.646-3.427-.581-3.438-2.308zm14.951-15.01H20.062v14.996l5.72-2.305c.299-.12.633-.12.932 0l5.791 2.315.005-15.006zm23.54 10.005h4.842a2.288 2.288 0 0 1 1.993 1.143l7.031 11.614c.92 1.576-.23 3.489-2.002 3.484H56.066a2.308 2.308 0 0 1-2.315-2.307V38.563a2.31 2.31 0 0 1 2.3-2.307zm.201 2.49v11.249h11.34l-6.808-11.248H56.25zm-25 15.004c.626 0 1.251.417 1.25 1.252V60c.003 1.67-2.503 1.67-2.5 0v-4.998c-.002-.835.624-1.252 1.25-1.252zm5 0c.626 0 1.251.417 1.25 1.252V60c.003 1.67-2.503 1.67-2.5 0v-4.998c-.002-.835.624-1.252 1.25-1.252zm5 0c.626 0 1.252.417 1.25 1.252V60c.003 1.67-2.503 1.67-2.5 0v-4.998c-.002-.835.624-1.252 1.25-1.252zm12.503 1.252h1.25c1.67-.003 1.67 2.503 0 2.5h-1.25c-1.67.004-1.67-2.503 0-2.5zm-36.249 7.496c-4.13 0-7.51 3.369-7.51 7.5 0 4.132 3.38 7.503 7.51 7.503 4.132 0 7.5-3.371 7.5-7.503 0-4.131-3.368-7.5-7.5-7.5zm46.256 0c-4.131 0-7.51 3.369-7.51 7.5 0 4.132 3.379 7.503 7.51 7.503s7.5-3.371 7.5-7.503c0-4.131-3.368-7.5-7.5-7.5zM17.505 66.25a3.76 3.76 0 0 1 3.746 3.745c0 2.057-1.688 3.757-3.746 3.757-2.057 0-3.757-1.698-3.757-3.757 0-2.06 1.7-3.745 3.757-3.745zm46.259 0a3.76 3.76 0 0 1 3.745 3.745c0 2.057-1.688 3.757-3.745 3.757-2.058 0-3.758-1.698-3.758-3.757 0-2.06 1.7-3.745 3.758-3.745zm-46.259 2.5c-.697 0-1.255.548-1.255 1.245 0 .696.558 1.257 1.255 1.257.698 0 1.246-.559 1.246-1.257 0-.698-.548-1.245-1.246-1.245zm46.259 0c-.698 0-1.255.548-1.255 1.245 0 .696.557 1.257 1.255 1.257.697 0 1.245-.559 1.245-1.257 0-.698-.548-1.245-1.245-1.245z" fill="#05581C"/></svg><svg fill="none" viewBox="0 0 410 410" id="choose-icon-4" xmlns="http://www.w3.org/2000/svg"><path d="M349.957 60.043C311.237 21.323 259.756 0 205 0 150.243 0 98.762 21.323 60.043 60.043 21.323 98.762 0 150.243 0 205c0 54.756 21.323 106.236 60.043 144.957C98.762 388.677 150.243 410 205 410c54.756 0 106.237-21.323 144.957-60.043C388.677 311.236 410 259.756 410 205c0-54.757-21.323-106.238-60.043-144.957zm12.535 120.012h-79.54c-1.593-41.652-7.159-80.379-16.072-110.998a250.417 250.417 0 0 0-4.046-12.647c51.947 20.287 90.731 67.068 99.658 123.645zM205 358.201c-4.181-6.247-10.438-19.219-16.121-42.676-5.904-24.359-9.692-54.093-11.012-85.58h54.266c-1.32 31.487-5.106 61.219-11.012 85.578-5.683 23.459-11.941 36.431-16.121 42.678zm-27.133-178.146c1.319-31.488 5.107-61.221 11.012-85.58 5.684-23.457 11.94-36.429 16.121-42.676 4.18 6.247 10.438 19.219 16.121 42.677 5.904 24.36 9.691 54.091 11.012 85.579h-54.266zM147.165 56.409a247.725 247.725 0 0 0-4.046 12.647c-8.914 30.619-14.479 69.346-16.072 110.998H47.506c8.929-56.575 47.713-103.356 99.659-123.645zM47.506 229.945h79.541c1.594 41.651 7.158 80.379 16.072 110.998a247.68 247.68 0 0 0 4.046 12.646c-51.946-20.287-90.73-67.068-99.659-123.644zm215.328 123.646c1.406-4.021 2.76-8.23 4.046-12.646 8.913-30.618 14.479-69.347 16.072-110.998h79.54c-8.927 56.574-47.711 103.356-99.658 123.644z" fill="#05581c"/></svg><svg fill="#05581c" viewBox="0 0 512 512" id="choose-icon-5" xmlns="http://www.w3.org/2000/svg"><path d="M117.337 60.41C106.082 29.555 72.04 13.114 40.433 24.551 9.254 35.883-7.764 70.261 3.574 101.455c11.317 31.079 46.9 47.159 77.904 35.859 31.304-11.42 47.153-45.833 35.859-76.904zm355.112-35.859c-31.417-11.393-65.594 4.852-76.904 35.859-11.364 31.263 4.739 65.557 35.874 76.904 31.24 11.409 65.684-5.085 76.89-35.859 11.337-31.194-4.679-65.572-35.86-76.904zm-83.511 282.455c-4.966-6.592-14.355-7.939-21.006-2.988l-62.15 46.597C294.9 365.922 276.115 376 255.941 376s-37.961-10.078-48.843-25.386l-62.148-46.611c-6.65-4.98-16.069-3.618-21.006 3.003-4.956 6.588-3.664 16.026 2.988 20.977l84.917 63.706a14.89 14.89 0 0 1 5.552 8.364L237.645 512h36.592l21.244-111.947a14.89 14.89 0 0 1 5.552-8.364l84.917-63.691c6.674-4.999 7.928-14.425 2.988-20.992z"/><path d="M255.941 286c-16.538 0-30 13.462-30 30s13.462 30 30 30 31-13.462 31-30-14.462-30-31-30z"/><path d="M493.748 238.773c-13.14-32.285-39.463-58.641-72.217-70.55-32.798-11.938-69.199-9.404-100.02 6.855-30.82 16.289-54.423 46-63.021 79.765l-.352 1.379c28.508 1.053 52.899 21.942 57.746 49.332l34.059-25.545c19.849-14.854 48.135-10.825 62.988 8.979 14.922 19.886 10.921 48.073-8.994 63.018l-80.654 60.483L304.953 512h93.419a15.01 15.01 0 0 0 13.521-8.496l78.735-164.521c15.117-31.406 16.26-67.925 3.12-100.21zm-330.795 41.236 34.045 25.54c4.849-27.387 28.24-48.274 56.746-49.327l-.352-1.379c-8.599-33.765-31.201-63.476-62.021-79.765-30.791-16.26-67.251-18.779-100.02-6.855-32.754 11.909-60.077 38.266-73.217 70.551-13.14 32.285-11.997 68.804 3.12 100.21l79.735 164.521A15.011 15.011 0 0 0 114.51 512h93.419l-18.331-99.511-80.654-60.498c-19.73-14.775-24.045-42.945-8.994-63.003 14.927-19.834 43.198-23.862 63.003-8.979zM294.734 0c-16.479 0-30.268 7.529-38.793 16.992C247.43 7.529 234.627 0 218.148 0c-29.282 0-52.207 24.331-52.207 55.4 0 37.905 37.148 68.137 80.742 105.938 2.827 2.446 5.757 3.662 9.258 3.662s7.573-1.216 10.386-3.662c38.159-32.972 80.614-65.621 80.614-105.938 0-31.069-22.925-55.4-52.207-55.4z"/></svg><svg viewBox="0 0 64 64" id="choose-icon-6" xmlns="http://www.w3.org/2000/svg"><path fill="#05581c" d="m62.79 29.172-28-28C34.009.391 32.985 0 31.962 0s-2.047.391-2.828 1.172l-28 28c-1.562 1.566-1.484 4.016.078 5.578 1.566 1.57 3.855 1.801 5.422.234L8 33.617V60c0 2.211 1.789 4 4 4h16V48h8v16h16c2.211 0 4-1.789 4-4V33.695l1.195 1.195c1.562 1.562 3.949 1.422 5.516-.141 1.563-1.561 1.645-4.015.079-5.577z"/></svg><svg viewBox="0 0 41 41" id="cross" xmlns="http://www.w3.org/2000/svg"><path d="M31.508 28.655c.802.803.802 2.05 0 2.853a1.95 1.95 0 0 1-1.427.579 1.95 1.95 0 0 1-1.426-.58L20.5 23.353l-8.155 8.156a1.95 1.95 0 0 1-1.427.579 1.95 1.95 0 0 1-1.426-.58 1.991 1.991 0 0 1 0-2.852l8.156-8.155-8.156-8.155a1.991 1.991 0 0 1 0-2.853 1.991 1.991 0 0 1 2.853 0l8.155 8.156 8.155-8.156a1.991 1.991 0 0 1 2.853 0c.802.803.802 2.05 0 2.853L23.352 20.5l8.156 8.155z"/></svg><svg fill="none" viewBox="0 0 24 25" id="envelope" xmlns="http://www.w3.org/2000/svg"><path d="M3 9.319v9.75a.75.75 0 0 0 .75.75h16.5a.75.75 0 0 0 .75-.75v-9.75l-9-6-9 6z" stroke="#05581C" stroke-width="1.5" stroke-linecap="round" stroke-linejoin="round"/><path d="m21 9.319-7.364 5.25h-3.272L3 9.319" stroke="#05581C" stroke-width="1.5" stroke-linecap="round" stroke-linejoin="round"/></svg><svg fill="none" viewBox="0 0 71 71" id="flag" xmlns="http://www.w3.org/2000/svg"><path d="m51.466 24.25 8.071-12.127a2.266 2.266 0 0 0 .216-2.406 2.239 2.239 0 0 0-.856-.912 2.203 2.203 0 0 0-1.205-.305H19.894V4h-4.447v58.5H11V67h13.34v-4.5h-4.446V40h37.798c.4-.002.792-.114 1.136-.323a2.24 2.24 0 0 0 .812-.865 2.272 2.272 0 0 0-.103-2.3l-8.07-12.262zM19.894 35.5V13h33.618l-6.56 9.878a2.27 2.27 0 0 0 0 2.497l6.67 10.125H19.895z" fill="#05581C"/></svg><svg fill="none" viewBox="0 0 70 70" id="healthcare" xmlns="http://www.w3.org/2000/svg"><path d="M67.95 29.86a1.865 1.865 0 0 0-2.653 0L46.238 48.917l-5.332-5.332a1.865 1.865 0 0 0-2.652 0 1.865 1.865 0 0 0 0 2.652l6.658 6.659c.37.369.848.546 1.326.546.479 0 .957-.177 1.327-.546l9.884-9.885c.342 1.12.52 2.297.492 3.5-.123 6.275-5.345 11.265-11.62 11.156-6.276-.123-11.28-5.346-11.157-11.621.123-6.207 5.209-11.156 11.389-11.156h.232c1.928.04 3.815.56 5.469 1.53.902.52 2.05.22 2.57-.683.52-.902.219-2.05-.683-2.57a14.997 14.997 0 0 0-4.717-1.75c1.053-3.035 1.586-6.07 1.586-9.064 0-7.37-5.264-13.262-12.25-13.7-4.854-.3-9.625 2.201-12.387 6.153-2.762-3.952-7.547-6.453-12.387-6.153-4.416.274-8.203 2.694-10.418 6.631a1.883 1.883 0 0 0 .725 2.557c.902.506 2.05.178 2.557-.725 1.572-2.816 4.265-4.539 7.382-4.73 4.512-.301 8.97 2.775 10.364 7.11 0 .013.013.026.027.04.055.164.137.315.232.451.014.014.028.041.041.055.096.137.22.26.37.355.027.028.054.041.095.069.137.096.287.178.451.232h.014c.164.055.342.082.52.082.027 0 .04.014.054.014.014 0 .041-.014.055-.014.178 0 .342-.027.506-.082h.014c.04-.013.082-.04.109-.055.068-.027.137-.054.191-.081.055-.028.096-.069.15-.096.055-.041.11-.069.151-.11l.123-.123c.041-.04.096-.082.123-.136.041-.041.069-.096.11-.15a.911.911 0 0 0 .095-.151 2.26 2.26 0 0 0 .082-.192c.014-.04.041-.082.055-.123 1.395-4.334 5.852-7.382 10.363-7.109 4.977.315 8.723 4.594 8.723 9.953 0 2.899-.588 5.852-1.75 8.819-7.725.533-13.945 6.904-14.096 14.793-.013.71.041 1.421.123 2.119-1.572 1.134-3.185 2.16-5.127 3.254C13.303 43.9 5.51 33.127 5.51 22.326a1.867 1.867 0 0 0-1.873-1.873c-1.04 0-1.873.834-1.873 1.873 0 12.428 8.845 24.664 23.68 32.758h.013c.014.014.027.014.041.027.082.041.178.069.26.096.055.014.11.055.164.068.15.041.314.069.478.069.165 0 .315-.028.479-.069a.835.835 0 0 0 .164-.068c.082-.027.178-.055.26-.096 1.996-1.093 3.664-2.091 5.236-3.171 2.215 5.427 7.492 9.324 13.727 9.447h.314c8.203 0 14.97-6.59 15.135-14.834.04-2.27-.41-4.444-1.326-6.48l7.588-7.589c.697-.697.697-1.886-.028-2.625z" fill="#05581C"/></svg><svg fill="none" viewBox="0 0 73 73" id="manager" xmlns="http://www.w3.org/2000/svg"><path d="M50.188 41.063h-6.084a1.52 1.52 0 0 1-1.52-1.521v-4.684a12.167 12.167 0 0 0 6.083-10.525v-9.125a12.167 12.167 0 1 0-24.334 0v9.125a12.166 12.166 0 0 0 6.084 10.525v4.684a1.52 1.52 0 0 1-1.521 1.52h-6.084a7.604 7.604 0 0 0-7.604 7.605v19.77a1.52 1.52 0 0 0 1.521 1.521h39.542a1.52 1.52 0 0 0 1.52-1.52V48.666a7.604 7.604 0 0 0-7.603-7.605zm-4.563-26.417a6.084 6.084 0 0 1-4.563 2.083 6.083 6.083 0 0 1-6.083-6.083 6.083 6.083 0 0 1 2.084-4.563 9.125 9.125 0 0 1 8.562 8.563zM32.743 6.905a9.125 9.125 0 0 0-.806 3.74 9.31 9.31 0 0 0 .244 2.07 6.296 6.296 0 0 1-4.639.805 9.124 9.124 0 0 1 5.201-6.615zm-5.368 17.428v-7.74c.503.083 1.011.129 1.52.136a9.125 9.125 0 0 0 4.472-1.186 9.125 9.125 0 0 0 12.258 3.042v5.748a9.125 9.125 0 0 1-18.25 0zM36.5 36.5a12.526 12.526 0 0 0 3.042-.395v3.437a4.563 4.563 0 0 0 1.825 3.634L36.5 48.043l-4.867-4.867a4.562 4.562 0 0 0 1.825-3.634v-3.437c.994.256 2.016.388 3.042.395zM18.25 48.667a4.563 4.563 0 0 1 4.563-4.563h5.46l6.706 6.707v16.106h-7.604v-7.605h-3.042v7.605H18.25v-18.25zm36.5 18.25h-6.083v-7.605h-3.042v7.605h-7.604V50.81l6.707-6.707h5.46a4.563 4.563 0 0 1 4.562 4.563v18.25z" fill="#05581C"/></svg><svg fill="none" viewBox="0 0 24 25" id="map-pin" xmlns="http://www.w3.org/2000/svg"><path d="M12 13.452a3 3 0 1 0 0-6 3 3 0 0 0 0 6z" stroke="#05581C" stroke-width="1.5" stroke-linecap="round" stroke-linejoin="round"/><path d="M19.5 10.452c0 6.75-7.5 12-7.5 12s-7.5-5.25-7.5-12a7.5 7.5 0 1 1 15 0v0z" stroke="#05581C" stroke-width="1.5" stroke-linecap="round" stroke-linejoin="round"/></svg><svg fill="none" viewBox="0 0 24 25" id="phone" xmlns="http://www.w3.org/2000/svg"><path d="M8.67 12.206a7.908 7.908 0 0 0 3.66 3.645.743.743 0 0 0 .735-.056l2.347-1.565a.75.75 0 0 1 .711-.065l4.391 1.882a.747.747 0 0 1 .45.778 4.5 4.5 0 0 1-4.464 3.93A12.75 12.75 0 0 1 3.75 8.005 4.5 4.5 0 0 1 7.68 3.54a.748.748 0 0 1 .778.45l1.884 4.394a.751.751 0 0 1-.062.706l-1.56 2.384a.743.743 0 0 0-.05.731v0z" stroke="#05581C" stroke-width="1.5" stroke-linecap="round" stroke-linejoin="round"/></svg><svg fill="none" viewBox="0 0 36 36" id="phone-outgoing" xmlns="http://www.w3.org/2000/svg"><path d="M31.5 10.5v-6m0 0h-6m6 0-9 9m5.25 18C14.91 31.5 4.5 21.09 4.5 8.25c0-.58.021-1.154.063-1.722.048-.653.072-.98.243-1.276a1.59 1.59 0 0 1 .648-.603c.309-.149.669-.149 1.389-.149h4.226c.606 0 .908 0 1.168.1a1.5 1.5 0 0 1 .595.416c.182.21.285.495.492 1.064l1.75 4.81c.24.662.36.993.34 1.307a1.5 1.5 0 0 1-.273.77c-.182.257-.484.439-1.088.801L12 15a18.151 18.151 0 0 0 9 9l1.232-2.053c.362-.604.544-.906.8-1.088a1.5 1.5 0 0 1 .77-.274c.315-.02.646.1 1.308.341l4.81 1.75c.57.207.854.31 1.064.492.185.162.328.366.416.595.1.26.1.562.1 1.168v4.226c0 .72 0 1.08-.149 1.389a1.59 1.59 0 0 1-.602.649c-.298.17-.624.194-1.276.242-.57.042-1.144.063-1.723.063z" stroke="#05581C" stroke-width="2.5" stroke-linecap="round" stroke-linejoin="round"/></svg><svg fill="none" viewBox="0 0 36 36" id="time" xmlns="http://www.w3.org/2000/svg"><path d="M34.5 18c0 9.113-7.387 16.5-16.5 16.5S1.5 27.113 1.5 18 8.887 1.5 18 1.5 34.5 8.887 34.5 18zM4.51 18c0 7.45 6.04 13.49 13.49 13.49S31.49 25.45 31.49 18 25.45 4.51 18 4.51 4.51 10.55 4.51 18z" fill="#05581C"/><path d="M18 7.5A1.5 1.5 0 0 0 16.5 9v9.7s0 .391.19.685c.127.25.325.466.586.617l6.93 4a1.5 1.5 0 1 0 1.5-2.597L19.5 17.822V9A1.5 1.5 0 0 0 18 7.5z" fill="#05581C"/></svg><svg fill="none" viewBox="0 0 56 56" id="why-icon-1" xmlns="http://www.w3.org/2000/svg"><path d="M10.675 21a1.75 1.75 0 0 1-1.706-2.122C10.369 12.141 18.353 7 28 7c9.647 0 17.631 5.14 19.031 11.878A1.75 1.75 0 0 1 45.325 21h-34.65zM45.5 36.75v3.5a7 7 0 0 1-7 7h-21a7 7 0 0 1-7-7v-3.5"/><path d="m6.125 38.5 8.75-3.5 8.75 3.5 8.75-3.5 8.75 3.5 8.75-3.5M5.25 28h45.5"/></svg><svg viewBox="0 0 47 47" id="why-icon-2" xmlns="http://www.w3.org/2000/svg"><path d="m34.937 18.79 2.761-.176.015-.001a6.495 6.495 0 0 0 4.847-2.845l2.183-3.221a13.055 13.055 0 0 0 2.072-9.537A2.917 2.917 0 0 0 44.079.57a12.876 12.876 0 0 0-9.166 3.214l-2.918 2.565a6.556 6.556 0 0 0-2.228 5.18l.001.015.157 2.778a3.923 3.923 0 0 1-1.08 2.93l-22.8 23.552c-.61.64-.925 1.518-.887 2.473.043 1.05.522 2.083 1.283 2.761.687.613 1.632.962 2.577.962.1 0 .202-.004.303-.013.947-.076 1.776-.495 2.338-1.186l20.513-25.579a3.882 3.882 0 0 1 2.764-1.432zm-3.86.54-20.51 25.578c-.314.385-.796.622-1.358.667a2.497 2.497 0 0 1-1.832-.597c-.48-.428-.783-1.085-.81-1.759-.023-.565.153-1.075.493-1.43l22.796-23.551a5.35 5.35 0 0 0 1.476-3.996l-.157-2.771a5.142 5.142 0 0 1 1.747-4.055l2.919-2.566a11.487 11.487 0 0 1 8.171-2.864 1.507 1.507 0 0 1 1.414 1.261 11.639 11.639 0 0 1-1.848 8.501l-2.183 3.222a5.095 5.095 0 0 1-3.793 2.23l-2.754.176a5.295 5.295 0 0 0-3.77 1.955z"/><path d="M45.699 40.625 30.413 26.624a.702.702 0 0 0-.996.046.712.712 0 0 0 .047 1.001L44.746 41.67c.363.338.57.836.58 1.402.014.674-.249 1.348-.703 1.804a2.495 2.495 0 0 1-1.793.707c-.563-.01-1.058-.218-1.39-.58l-13.623-15.04a.702.702 0 0 0-.995-.047.712.712 0 0 0-.047 1.002L40.401 45.96c.599.651 1.451 1.02 2.401 1.04h.074c1.021 0 2.042-.417 2.744-1.123.719-.723 1.136-1.782 1.115-2.833-.018-.956-.385-1.813-1.036-2.419zM8.501 18.656a6.505 6.505 0 0 0 4.266 1.734h.015l2.767.01a3.876 3.876 0 0 1 2.843 1.26l1.218 1.346a.7.7 0 0 0 .995.046.711.711 0 0 0 .047-1l-1.22-1.348a5.288 5.288 0 0 0-3.879-1.722l-2.759-.009a5.104 5.104 0 0 1-3.306-1.33L1.469 8.057a.245.245 0 0 1 .187-.402c.037 0 .11.01.172.072l7.298 7.34a1.845 1.845 0 0 0 2.617 0l.858-.863 1.523-1.532.858-.863a1.87 1.87 0 0 0 0-2.631l-7.299-7.34a.246.246 0 0 1 0-.346.241.241 0 0 1 .33-.014l9.53 8.064a5.161 5.161 0 0 1 1.324 3.325l.008 2.775a5.35 5.35 0 0 0 1.715 3.901l1.306 1.197a.702.702 0 0 0 .995-.047.712.712 0 0 0-.046-1.001l-1.304-1.194a3.92 3.92 0 0 1-1.256-2.861l-.009-2.782v-.016a6.58 6.58 0 0 0-1.725-4.29.714.714 0 0 0-.065-.062L8.92.394A1.636 1.636 0 0 0 6.687.49a1.67 1.67 0 0 0 0 2.35l7.299 7.34a.446.446 0 0 1 0 .628l-.36.361-8.134-8.18a.701.701 0 0 0-.997 0 .711.711 0 0 0 0 1.002l8.135 8.18-.527.53-8.135-8.18a.702.702 0 0 0-.996 0 .71.71 0 0 0 0 1.002l8.134 8.18-.359.362a.44.44 0 0 1-.624 0l-7.3-7.34a1.637 1.637 0 0 0-1.167-.487c-.442 0-.857.173-1.169.487A1.66 1.66 0 0 0 .391 8.97l8.049 9.62c.019.024.04.045.061.066z"/></svg><svg fill="none" viewBox="0 0 56 55" id="why-icon-3" xmlns="http://www.w3.org/2000/svg"><path d="M38.5 17.188h9.319c.348-.003.69.099.978.29.29.192.513.465.64.784l3.063 7.52m-49 5.156h35m2.625 15.468c2.9 0 5.25-2.308 5.25-5.156s-2.35-5.156-5.25-5.156-5.25 2.308-5.25 5.156 2.35 5.156 5.25 5.156zm-26.25 0c2.9 0 5.25-2.308 5.25-5.156s-2.35-5.156-5.25-5.156-5.25 2.308-5.25 5.156 2.35 5.156 5.25 5.156zm21-5.156h-15.75"/><path d="M9.625 41.25H5.25c-.464 0-.91-.181-1.237-.503A1.703 1.703 0 0 1 3.5 39.53V15.47c0-.456.184-.893.513-1.216a1.766 1.766 0 0 1 1.237-.503H38.5v23.031m0-11.001h14v13.75c0 .456-.184.893-.513 1.216a1.766 1.766 0 0 1-1.237.503h-4.375"/></svg><svg viewBox="0 0 48 47" id="why-icon-4" xmlns="http://www.w3.org/2000/svg"><path d="M45.068 31.915a8.833 8.833 0 0 1-7.875 1.131.781.781 0 0 0-.716.1l-3.524 2.507.907 1.282 3.197-2.279a10.434 10.434 0 0 0 8.884-1.44c.462-.313.9-.66 1.309-1.039l-1.062-1.155c-.35.326-.725.624-1.12.893z"/><path d="M37.181 20.188a7.137 7.137 0 0 0-2.591 2.942 7.167 7.167 0 0 0-.651 3.872l-9.928 6.385-9.929-6.381a7.134 7.134 0 0 0-.647-3.874 7.104 7.104 0 0 0-2.599-2.939 7.467 7.467 0 0 0-5.106-1.277 5.782 5.782 0 0 0-4.239 2.535 5.825 5.825 0 0 0-.755 4.893 7.505 7.505 0 0 0 3.094 4.268 7.072 7.072 0 0 0 7.518.466l7.706 5.49-7.334 4.719a3.073 3.073 0 0 0-1.359 1.974 3.09 3.09 0 0 0 1.333 3.208 3.067 3.067 0 0 0 3.459-.07l8.858-6.303 8.859 6.308a3.072 3.072 0 0 0 4.839-1.908 3.1 3.1 0 0 0-.507-2.364 3.082 3.082 0 0 0-.896-.846l-7.342-4.715 7.712-5.492a7.067 7.067 0 0 0 7.517-.464c3.219-2.18 4.27-6.292 2.341-9.168-1.929-2.876-6.127-3.439-9.352-1.259zM14.247 45.121a1.541 1.541 0 0 1-2.124-.389 1.512 1.512 0 0 1 .44-2.121l7.869-5.064 2.223 1.583-8.408 5.991zm21.88-1.542a1.52 1.52 0 0 1-.653 1.576 1.508 1.508 0 0 1-1.701-.032L11.814 29.487a.781.781 0 0 0-.914.006 5.414 5.414 0 0 1-6.195-.183 5.94 5.94 0 0 1-2.456-3.371 4.257 4.257 0 0 1 .54-3.616 4.234 4.234 0 0 1 3.141-1.852 5.908 5.908 0 0 1 4.035 1.021 5.44 5.44 0 0 1 2.132 2.457 5.462 5.462 0 0 1 .353 3.238.789.789 0 0 0 .337.854L35.461 42.61a1.5 1.5 0 0 1 .665.969zm7.189-14.27a5.416 5.416 0 0 1-6.195.18.782.782 0 0 0-.915-.006l-8.664 6.171-2.076-1.335 9.768-6.286a.785.785 0 0 0 .337-.853 5.49 5.49 0 0 1 .36-3.236 5.468 5.468 0 0 1 2.129-2.458c2.506-1.695 5.727-1.32 7.175.831 1.448 2.152.586 5.296-1.92 6.991zM9.075 1.44 8.208.131a10.21 10.21 0 0 0-4.03 5.273 10.25 10.25 0 0 0 .054 6.645l1.476-.525A8.67 8.67 0 0 1 5.664 5.9a8.64 8.64 0 0 1 3.412-4.46h-.001zM7.37 14.354a8.737 8.737 0 0 1-.997-1.39l-1.356.787a10.25 10.25 0 0 0 1.179 1.642l1.174-1.039z"/><path d="m32.61 26.872 2.23-11.184a7.04 7.04 0 0 0 4.692-2.387 7.086 7.086 0 0 0-.45-9.785 7.035 7.035 0 0 0-4.89-1.945 6.945 6.945 0 0 0-4.36 1.52 7.045 7.045 0 0 0-2.528-2.27 7.018 7.018 0 0 0-9.113 2.27 6.945 6.945 0 0 0-4.36-1.52 7.034 7.034 0 0 0-4.868 1.958 7.086 7.086 0 0 0-.448 9.758 7.04 7.04 0 0 0 4.668 2.398l2.23 11.187 1.535-.308-.439-2.206h15.004l-.438 2.2 1.535.314zm-3.78-4.085.655-4.603-1.55-.224-.687 4.826h-2.454v-8.643h-1.566v8.643h-2.453l-.687-4.826-1.55.224.655 4.602h-2.997l-1.598-8.014a.786.786 0 0 0-.767-.629 5.472 5.472 0 0 1-3.876-1.61 5.51 5.51 0 0 1 0-7.78A5.472 5.472 0 0 1 16 3.592a5.428 5.428 0 0 1 1.81 1.28.783.783 0 0 0 1.274-.196 5.483 5.483 0 0 1 2.018-2.262 5.458 5.458 0 0 1 7.835 2.262.784.784 0 0 0 1.273.197 5.428 5.428 0 0 1 3.98-1.73c1.454 0 2.849.58 3.877 1.612a5.51 5.51 0 0 1 0 7.778 5.472 5.472 0 0 1-3.876 1.611.782.782 0 0 0-.768.629l-1.597 8.014H28.83z"/></svg></svg>